<svg xmlns="http://www.w3.org/2000/svg" xmlns:xlink="http://www.w3.org/1999/xlink" width="101.001" height="164.85" viewBox="0 0 101.001 164.85"><defs><style>.a{fill:url(#a);}.b{fill:#fff;}.c{filter:url(#d);}.d{filter:url(#b);}</style><linearGradient id="a" x1="0.5" x2="0.5" y2="1" gradientUnits="objectBoundingBox"><stop offset="0" stop-color="#fff"/><stop offset="1" stop-color="#fff"/></linearGradient><filter id="b" x="0.173" y="0" width="100.828" height="127.115" filterUnits="userSpaceOnUse"><feOffset dy="3" input="SourceAlpha"/><feGaussianBlur stdDeviation="3" result="c"/><feFlood flood-color="#fff" flood-opacity="0.302"/><feComposite operator="in" in2="c"/><feComposite in="SourceGraphic"/></filter><filter id="d" x="0" y="112.439" width="100.837" height="52.41" filterUnits="userSpaceOnUse"><feOffset dy="3" input="SourceAlpha"/><feGaussianBlur stdDeviation="3" result="e"/><feFlood flood-color="#fff" flood-opacity="0.302"/><feComposite operator="in" in2="e"/><feComposite in="SourceGraphic"/></filter></defs><g transform="translate(9.003 6)"><g class="d" transform="matrix(1, 0, 0, 1, -9, -6)"><path class="a" d="M82.66,109.115H0V0H68.337L82.828,14.576H82.66v94.539h0ZM50.308,69.6H63.232V24.726H45.248L35.173,53.807h-.632L24.219,24.726H6.554V69.6H19.467V42.715H20.1L29.727,69.6H40.048l9.627-26.953h.632Z" transform="translate(9.17 6)"/></g><g class="c" transform="matrix(1, 0, 0, 1, -9, -6)"><path class="b" d="M406.894,329.51v34.41H338.557l-14.5-14.576h.174V329.51Z" transform="translate(-315.06 -211.07)"/></g></g></svg>